<svg id="Layer_1" data-name="Layer 1" xmlns="http://www.w3.org/2000/svg" xmlns:xlink="http://www.w3.org/1999/xlink" viewBox="0 0 1080 329.36"><defs><style>.cls-1{fill:#2b3c8e;}.cls-2{fill:url(#linear-gradient);}.cls-3{fill:#00a99d;}.cls-4{fill:url(#linear-gradient-2);}</style><linearGradient id="linear-gradient" x1="140.35" y1="178.72" x2="270.33" y2="50.57" gradientTransform="translate(-21.26 178.63) rotate(-45)" gradientUnits="userSpaceOnUse"><stop offset="0" stop-color="#262261"/><stop offset="1" stop-color="#2b3c8e"/></linearGradient><linearGradient id="linear-gradient-2" x1="172.62" y1="214.84" x2="349.81" y2="214.84" gradientTransform="translate(-78.52 240.13) rotate(-45)" gradientUnits="userSpaceOnUse"><stop offset="0" stop-color="#006e65"/><stop offset="1" stop-color="#00a99d"/></linearGradient></defs><path d="M277.43,130V16.84h26.32V130Z"/><path d="M374.5,132.33a65.82,65.82,0,0,1-23.07-3.74A40.69,40.69,0,0,1,335,117.66a35.33,35.33,0,0,1-8.35-17.42l24.59-4.65q2.32,8.4,8.25,12.5t15.54,4.1q9.72,0,15.44-3.9t5.72-9.67a10.09,10.09,0,0,0-3.75-8q-3.75-3.19-11.54-4.91l-19.33-4.15q-16-3.43-23.89-11.34t-7.89-20.35a29.53,29.53,0,0,1,5.76-18.21,37.41,37.41,0,0,1,16.05-11.95,62.05,62.05,0,0,1,23.84-4.25q12.84,0,22.11,3.65a37.82,37.82,0,0,1,15,10.17,36.54,36.54,0,0,1,7.95,15.33L397,49.23a21.07,21.07,0,0,0-7-10.07q-5.06-4.11-14.27-4.1-8.4,0-14,3.69t-5.62,9.47a10.38,10.38,0,0,0,3.75,8.2q3.74,3.24,12.35,5.06l19.23,4.05q16.09,3.43,23.89,11t7.79,19.54A30.41,30.41,0,0,1,416.92,115q-6.18,8.15-17.16,12.75T374.5,132.33Z"/><path d="M445.56,130V16.84h26.32V130Z"/><path d="M548.91,132.33q-16.5,0-28.65-7.34a49.36,49.36,0,0,1-18.77-20.44Q494.86,91.44,494.86,74q0-17.61,6.63-30.82a48.92,48.92,0,0,1,18.77-20.5q12.15-7.29,28.65-7.29t28.75,7.29a48.92,48.92,0,0,1,18.77,20.5q6.63,13.2,6.63,30.82,0,17.4-6.63,30.52A49.36,49.36,0,0,1,577.66,125Q565.51,132.34,548.91,132.33Zm0-21.35q9.21,0,15.34-5a29.4,29.4,0,0,0,9.11-13.36,55.86,55.86,0,0,0,3-18.72,56.23,56.23,0,0,0-3-18.83,29.45,29.45,0,0,0-9.11-13.36q-6.13-5-15.34-5t-15.23,5a29.68,29.68,0,0,0-9,13.31,55.82,55.82,0,0,0-3,18.88,55.61,55.61,0,0,0,3,18.72,29.62,29.62,0,0,0,9,13.36Q539.7,111,548.91,111Z"/><path d="M652.36,63.7V130H626V16.84h24.9l.41,27.93h-2.13q4.75-14.67,14-22t23.08-7.34a40.33,40.33,0,0,1,20.34,5,33.65,33.65,0,0,1,13.52,14.48q4.8,9.51,4.81,23.17v72H698.62V62.08q0-11.32-5.87-17.81t-16.2-6.48a25.15,25.15,0,0,0-12.45,3,21.53,21.53,0,0,0-8.6,8.85A29.12,29.12,0,0,0,652.36,63.7Z"/><path d="M784.45,132.33a46.48,46.48,0,0,1-19.33-3.89,31.08,31.08,0,0,1-13.56-11.5q-5-7.57-5-18.72,0-9.61,3.59-15.89a27.47,27.47,0,0,1,9.72-10,49,49,0,0,1,13.81-5.67,110.12,110.12,0,0,1,16-2.73q9.81-1.12,16-1.93c4.12-.54,7.14-1.41,9.06-2.63a6.22,6.22,0,0,0,2.88-5.67v-.5a18.87,18.87,0,0,0-2.22-9.47,14.59,14.59,0,0,0-6.63-6,25.53,25.53,0,0,0-10.88-2.08,29.2,29.2,0,0,0-11.39,2A22.59,22.59,0,0,0,778.68,43a21.12,21.12,0,0,0-4.45,7l-24.39-5a39,39,0,0,1,10.32-16.55,45,45,0,0,1,16.65-9.77,65.75,65.75,0,0,1,21-3.24A71.78,71.78,0,0,1,814,17.29a45.57,45.57,0,0,1,14.93,6.33,33.39,33.39,0,0,1,10.93,11.94Q844,43.06,844,54.39V130h-25.2V114.42h-1a33.8,33.8,0,0,1-6.94,8.85,32.83,32.83,0,0,1-10.93,6.58A43.51,43.51,0,0,1,784.45,132.33Zm6.79-19.53a29,29,0,0,0,14.12-3.24,24.33,24.33,0,0,0,9.21-8.56,21.61,21.61,0,0,0,3.29-11.59V76.05A14.1,14.1,0,0,1,813.45,78q-3.09.9-6.88,1.61c-2.53.48-5,.88-7.49,1.22s-4.54.61-6.22.81a48.21,48.21,0,0,0-10.63,2.63,17.31,17.31,0,0,0-7.44,5.11,13.13,13.13,0,0,0-2.69,8.56,13.16,13.16,0,0,0,2.48,8.14,15.39,15.39,0,0,0,6.79,5A26.3,26.3,0,0,0,791.24,112.8Z"/><path d="M871.91,130V16.84h25.51V35.77h1.21a27.9,27.9,0,0,1,10.63-15.14,29.46,29.46,0,0,1,17.31-5.31c1.48,0,3.14.07,5,.2s3.37.31,4.66.51V40.22a30.89,30.89,0,0,0-5.27-.91,65,65,0,0,0-7.18-.41A27.2,27.2,0,0,0,910.63,42a23.16,23.16,0,0,0-9.11,8.66,24.23,24.23,0,0,0-3.29,12.7V130Z"/><path d="M956.33,170.39l6.17-20.55,3.14.81a27.5,27.5,0,0,0,10.63.86,12.74,12.74,0,0,0,7.79-4q3.13-3.39,4.46-9.87l1.62-7.18L947.42,16.84h28.14l20.65,61.54a204.58,204.58,0,0,1,6,21.76q2.33,10.85,5.16,22.17h-6.88q2.73-11.34,5.47-22.22t6.37-21.71l21.36-61.54h27.84l-48.59,127.74a56.94,56.94,0,0,1-8.6,15.44,33.45,33.45,0,0,1-12.66,9.76,43.12,43.12,0,0,1-17.71,3.34,60.69,60.69,0,0,1-10.27-.81A34.72,34.72,0,0,1,956.33,170.39Z"/><path d="M323.49,284.64V171.48h26.32V284.64Z"/><path d="M377.74,284.64V171.48h25.51V190.4h1.22a27.85,27.85,0,0,1,10.62-15.13A29.5,29.5,0,0,1,432.4,170c1.49,0,3.14.06,5,.2s3.38.31,4.66.51v24.19a30.73,30.73,0,0,0-5.26-.91,65.14,65.14,0,0,0-7.19-.41,27.2,27.2,0,0,0-13.11,3.14,23.21,23.21,0,0,0-9.11,8.65A24.39,24.39,0,0,0,404.06,218v66.6Z"/><path d="M516.11,171.48v20.64H451.84V171.48Zm-48.18-26.93h26.32V252.76q0,6.17,2.63,9.06c1.76,1.92,4.62,2.88,8.61,2.88a32.62,32.62,0,0,0,4.8-.46c2-.3,3.6-.58,4.81-.85l4.15,20.34a52.44,52.44,0,0,1-8.91,1.87,71.89,71.89,0,0,1-8.7.56q-16.31,0-25-8.1T467.93,255Z"/><path d="M575.73,286.06a40.7,40.7,0,0,1-20.39-5,33.54,33.54,0,0,1-13.57-14.53Q537,257,537,243.44v-72h26.31V239.4q0,11.32,5.92,17.81t16.25,6.48a25.12,25.12,0,0,0,12.45-3,21.21,21.21,0,0,0,8.56-8.9,29.78,29.78,0,0,0,3.08-14v-66.3H636V284.64H611l-.3-27.94h2q-4.75,14.79-14.07,22.07T575.73,286.06Z"/><path d="M695.48,287a46.29,46.29,0,0,1-19.33-3.9,31.08,31.08,0,0,1-13.57-11.49q-5-7.59-5-18.72,0-9.62,3.6-15.89a27.53,27.53,0,0,1,9.71-10,49.08,49.08,0,0,1,13.82-5.67,111.59,111.59,0,0,1,16-2.74q9.82-1.11,16-1.92T725.8,214a6.23,6.23,0,0,0,2.88-5.67v-.5a18.74,18.74,0,0,0-2.23-9.47,14.43,14.43,0,0,0-6.63-6,25.47,25.47,0,0,0-10.88-2.08,29.27,29.27,0,0,0-11.39,2,22.55,22.55,0,0,0-7.84,5.26,21,21,0,0,0-4.45,7l-24.4-4.95a39.09,39.09,0,0,1,10.33-16.55,44.75,44.75,0,0,1,16.65-9.77,65.66,65.66,0,0,1,21-3.24A71.91,71.91,0,0,1,725,171.93a45.66,45.66,0,0,1,14.93,6.33,33.39,33.39,0,0,1,10.93,11.94Q755,197.7,755,209v75.61H729.79V269.06h-1a34,34,0,0,1-6.93,8.85,33.09,33.09,0,0,1-10.93,6.58A43.55,43.55,0,0,1,695.48,287Zm6.78-19.54a29,29,0,0,0,14.12-3.23,24.18,24.18,0,0,0,9.21-8.56,21.52,21.52,0,0,0,3.29-11.59V230.69a14,14,0,0,1-4.4,1.93q-3.09.9-6.88,1.61c-2.53.48-5,.88-7.49,1.22s-4.54.61-6.23.81a47.8,47.8,0,0,0-10.63,2.63,17.35,17.35,0,0,0-7.44,5.11,14.81,14.81,0,0,0-.2,16.7,15.3,15.3,0,0,0,6.78,5A26.38,26.38,0,0,0,702.26,267.43Z"/><path d="M809.25,144.55V284.64H782.93V144.55Z"/><path d="M880,287a65.6,65.6,0,0,1-23.08-3.75,40.66,40.66,0,0,1-16.45-10.93,35.26,35.26,0,0,1-8.35-17.41l24.6-4.65q2.32,8.4,8.24,12.5t15.54,4.1q9.72,0,15.44-3.9t5.72-9.67a10.09,10.09,0,0,0-3.75-8q-3.74-3.19-11.54-4.91l-19.33-4.15q-16-3.43-23.89-11.34t-7.89-20.35A29.48,29.48,0,0,1,841,186.26a37.32,37.32,0,0,1,16-11.95,62.05,62.05,0,0,1,23.84-4.25q12.86,0,22.11,3.64a38,38,0,0,1,15,10.18A36.41,36.41,0,0,1,926,199.21l-23.48,4.66a21.14,21.14,0,0,0-7-10.08q-5.06-4.09-14.27-4.09-8.4,0-14,3.69t-5.62,9.47a10.36,10.36,0,0,0,3.75,8.19q3.74,3.25,12.35,5.06l19.23,4q16.1,3.45,23.89,11t7.79,19.53a30.42,30.42,0,0,1-6.17,18.88q-6.18,8.14-17.16,12.75A64.84,64.84,0,0,1,880,287Z"/><rect class="cls-1" x="78.42" y="13.97" width="78.56" height="202.02" transform="translate(-46.83 116.91) rotate(-45)"/><path class="cls-2" d="M165.72,14h78.56a0,0,0,0,1,0,0V216a0,0,0,0,1,0,0H216.93a51.21,51.21,0,0,1-51.21-51.21V14A0,0,0,0,1,165.72,14Z" transform="translate(141.35 -111.28) rotate(45)"/><rect class="cls-3" x="124.03" y="113.83" width="78.56" height="202.02" transform="translate(-104.08 178.4) rotate(-45)"/><path class="cls-4" d="M211.33,113.83h78.56a0,0,0,0,1,0,0v202a0,0,0,0,1,0,0H262.54a51.21,51.21,0,0,1-51.21-51.21V113.83a0,0,0,0,1,0,0Z" transform="translate(225.32 -114.28) rotate(45)"/></svg>